<svg width="55" height="25" viewBox="0 0 55 25" fill="none" xmlns="http://www.w3.org/2000/svg">
    <g clip-path="url(#clip0_1_10)">
        <path d="M53.9859 13.4523L54.2977 20.557C53.7602 20.8016 51.7312 21.8758 50.9695 21.8758H47.2289V21.3633C46.8023 21.7055 46.0187 21.8758 45.3016 21.8758H33.5414V19.9492C33.5414 19.6805 33.4969 19.6805 33.2719 19.6805H33.0711V21.8758H29.1953V19.5914C28.5453 19.9055 27.8289 19.9055 27.1789 19.9055H26.7539V21.8766H22.0273L20.907 20.5828L19.675 21.8766H12.0812V13.4539H19.8094L20.907 14.7531L22.1164 13.4539H27.3133C27.9187 13.4539 28.9047 13.5438 29.3297 13.9695V13.4539H33.9672C34.4375 13.4539 35.3336 13.5438 35.9383 13.9695V13.4539H42.9273V13.9695C43.3305 13.6336 44.0469 13.4539 44.6969 13.4539H48.5937V13.9695C49.0203 13.6789 49.625 13.4539 50.4086 13.4539H53.9852L53.9859 13.4523ZM27.2695 18.6492C28.5016 18.6492 29.7562 18.3133 29.7562 16.6328C29.7562 14.9977 28.4789 14.6617 27.3586 14.6617H22.7664L20.907 16.6328L19.1602 14.6617H13.3578V20.6539H19.0703L20.907 18.6938L22.6773 20.6539H25.4555V18.6492H27.2695ZM35.9383 18.4031C35.8039 18.2234 35.5578 18 35.1992 17.8875C35.6023 17.7531 36.2289 17.2375 36.2289 16.2969C36.2289 15.6023 35.9828 15.2211 35.5125 14.9523C35.0422 14.7063 34.482 14.6617 33.7422 14.6617H30.4492V20.6539H31.9055V18.4695H33.4508C33.9664 18.4695 34.257 18.5148 34.4812 18.7383C34.7281 19.0297 34.7281 19.5445 34.7281 19.9477V20.6531H36.1625V19.4992C36.1625 18.9617 36.1172 18.693 35.9375 18.4016L35.9383 18.4031ZM41.8523 15.9164V14.6625H37.0586V20.6547H41.8523V19.4336H38.4695V18.2234H41.7852V17.0141H38.4695V15.9164H41.8523ZM45.5039 20.6547C46.9602 20.6547 47.7898 20.0617 47.7898 18.7852C47.7898 18.1805 47.6102 17.7992 47.3641 17.4852C47.0055 17.1945 46.4898 17.0148 45.6836 17.0148H44.8992C44.6977 17.0148 44.5187 16.9703 44.3391 16.925C44.182 16.8578 44.0477 16.7234 44.0477 16.4992C44.0477 16.2977 44.093 16.1633 44.2719 16.0289C44.3836 15.9391 44.5633 15.9391 44.832 15.9391H47.475V14.6625H44.607C43.0617 14.6625 42.5461 15.6031 42.5461 16.4547C42.5461 18.3594 44.2266 18.2688 45.5477 18.3141C45.8164 18.3141 45.9727 18.3594 46.0633 18.4492C46.1531 18.5164 46.243 18.6953 46.243 18.8742C46.243 19.0313 46.1531 19.1656 46.0633 19.2555C45.9281 19.3453 45.7719 19.3898 45.5031 19.3898H42.7258V20.6555H45.5031L45.5039 20.6547ZM51.1266 20.6555C52.5828 20.6555 53.4109 20.0617 53.4109 18.7852C53.4109 18.1805 53.232 17.7992 52.9859 17.4852C52.6273 17.1945 52.1117 17.0148 51.3055 17.0148H50.5219C50.3203 17.0148 50.1406 16.9703 49.9609 16.925C49.8039 16.8578 49.6695 16.7234 49.6695 16.4992C49.6695 16.2977 49.7594 16.1633 49.8937 16.0289C50.0062 15.9391 50.1852 15.9391 50.4539 15.9391H53.0969V14.6625H50.2289C48.7281 14.6625 48.168 15.6031 48.168 16.4547C48.168 18.3594 49.8484 18.2688 51.1695 18.3141C51.4383 18.3141 51.5945 18.3594 51.6852 18.45C51.775 18.5172 51.8641 18.6961 51.8641 18.875C51.8641 19.032 51.775 19.1664 51.6852 19.2563C51.5953 19.3461 51.3937 19.3906 51.125 19.3906H48.3469V20.6563H51.125L51.1266 20.6555ZM34.3484 16.0297C34.5281 16.1195 34.6398 16.2984 34.6398 16.5445C34.6398 16.8133 34.5281 17.0148 34.3484 17.1492C34.1242 17.2391 33.9227 17.2391 33.6539 17.2391L31.9062 17.2844V15.918H33.6539C33.9227 15.918 34.1687 15.918 34.3484 16.0297ZM28.2094 6.75469C27.9852 6.88906 27.7844 6.88906 27.4922 6.88906H25.7227V5.56719H27.4922C27.7391 5.56719 28.0297 5.56719 28.2094 5.65625C28.3891 5.76875 28.4781 5.94844 28.4781 6.21719C28.4781 6.46328 28.3891 6.6875 28.2094 6.75547V6.75469ZM39.6789 5.34297L40.6648 7.71719H38.6937L39.6789 5.34297ZM24.043 20.15L21.8258 17.6633L24.043 15.3109V20.15ZM27.3586 15.9164C27.8742 15.9164 28.2102 16.118 28.2102 16.6336C28.2102 17.1492 27.8742 17.4398 27.3586 17.4398H25.4547V15.9164H27.3586ZM4.51015 7.71719L5.51875 5.34297L6.50469 7.71719H4.51094H4.51015ZM14.7695 15.9156H18.3758L19.9664 17.6633L18.3312 19.4328H14.7695V18.2227H17.95V17.0133H14.7695V15.9156ZM14.9039 10.45L14.4781 11.5258H11.9469L11.5203 10.4953V11.5258H6.65937L6.14375 10.1594H4.91172L4.35156 11.5258H-0.00156403L1.86484 7.1125L3.6125 3.125H7.3539L7.86875 4.11094V3.125H12.2367L13.2227 5.25313L14.1859 3.125H28.1195C28.7695 3.125 29.3289 3.23672 29.7547 3.59531V3.125H33.5852V3.59531C34.2125 3.23672 35.0414 3.125 35.982 3.125H41.5148L42.0305 4.11094V3.125H46.107L46.7125 4.11094V3.125H50.6992V11.5258H46.6672L45.8836 10.2484V11.5258H40.8656L40.3055 10.1594H39.0734L38.5133 11.5258H35.8922C34.8625 11.5258 34.1 11.2789 33.5844 11.0109V11.5258H27.357V9.59922C27.357 9.33047 27.3125 9.28516 27.1336 9.28516H26.932V11.525H14.9023V10.4492L14.9039 10.45ZM33.8773 5.00703C33.2273 5.65625 33.1156 6.46328 33.093 7.35938C33.093 8.43516 33.3617 9.12969 33.8328 9.64453C34.3477 10.1602 35.2437 10.3164 35.9383 10.3164H37.6187L38.1781 8.99453H41.1805L41.7406 10.3164H44.6523V5.81406L47.3633 10.3164H49.4242V4.31328H47.9461V8.47969L45.4148 4.31328H43.1969V9.98047L40.7781 4.31328H38.65L36.5891 9.03984H35.9391C35.5586 9.03984 35.1555 8.95 34.9531 8.74844C34.6844 8.43438 34.5719 7.96406 34.5719 7.31406C34.5719 6.68672 34.6844 6.21641 34.9531 5.94844C35.2445 5.70156 35.5578 5.61172 36.0734 5.61172H37.4398V4.3125H36.0734C35.0875 4.3125 34.3031 4.53594 33.8773 5.00703ZM30.9211 4.3125V10.3156H32.3766V4.3125H30.9211ZM24.3125 4.3125V10.3164H25.7234V8.14375H27.2695C27.7852 8.14375 28.1211 8.18828 28.3445 8.38984C28.5914 8.70313 28.5461 9.21875 28.5461 9.55469V10.3164H30.0242V9.12969C30.0242 8.61406 29.9797 8.34531 29.7555 8.05391C29.6211 7.875 29.375 7.67266 29.0609 7.53906C29.4641 7.35938 30.0914 6.88906 30.0914 5.94844C30.0914 5.25391 29.8 4.87266 29.3289 4.58125C28.8586 4.3125 28.343 4.3125 27.6039 4.3125H24.3109H24.3125ZM18.4656 4.31328V10.3172H23.282V9.08516H19.9219V7.875H23.2375V6.64297H19.9219V5.56719H23.282V4.3125L18.4656 4.31328ZM12.5969 10.3164H13.8289L15.9344 5.6125V10.3164H17.3906V4.31328H15.0383L13.2687 8.39063L11.3867 4.31328H9.07969V9.98047L6.61562 4.31328H4.4875L1.91172 10.3164H3.45703L3.99453 8.99453H7.01875L7.55625 10.3164H10.4906V5.6125L12.5969 10.3164Z" fill="#888888"/>
    </g>
    <defs>
        <clipPath id="clip0_1_10">
            <rect width="54.6875" height="25" fill="white"/>
        </clipPath>
    </defs>
</svg>
