<svg width="75" height="25" viewBox="0 0 75 25" fill="none" xmlns="http://www.w3.org/2000/svg">
    <g clip-path="url(#clip0_1_8)">
        <path d="M39.3992 6.29609C42.9508 6.29609 45.7211 9.02265 45.7211 12.4961C45.7211 15.9891 42.9313 18.7156 39.3984 18.7156C35.775 18.7156 33.0586 16.025 33.0586 12.4258C33.0586 9.03984 35.8984 6.29687 39.3984 6.29687L39.3992 6.29609ZM3.40781 6.51953C7.16641 6.51953 9.78906 8.96718 9.78906 12.4883C9.78906 14.2437 8.98594 15.943 7.63203 17.0695C6.49063 18.018 5.18984 18.4453 3.39063 18.4453H0.000782013V6.51953H3.40781ZM6.11875 15.4766C6.92109 14.7641 7.39922 13.618 7.39922 12.4711C7.39922 11.3273 6.92109 10.2195 6.11875 9.5039C5.35 8.80703 4.44219 8.53906 2.94297 8.53906H2.32031V16.4266H2.94297C4.44219 16.4266 5.38594 16.1398 6.11875 15.4766ZM10.8594 18.4461V6.52031H13.1758V18.4461H10.8594ZM18.8461 11.0945C21.4852 12.0617 22.2672 12.9211 22.2672 14.8164C22.2672 17.1227 20.575 18.7344 18.168 18.7344C16.4016 18.7344 15.118 18.0344 14.05 16.4633L15.5453 15.0133C16.0805 16.0508 16.9711 16.6039 18.0766 16.6039C19.1117 16.6039 19.8797 15.8891 19.8797 14.9227C19.8797 14.4219 19.6469 13.9937 19.1836 13.6898C18.9516 13.5437 18.4891 13.3305 17.5789 13.0102C15.4039 12.2211 14.6555 11.3812 14.6555 9.73515C14.6555 7.7875 16.2609 6.32031 18.3625 6.32031C19.6648 6.32031 20.8594 6.7664 21.857 7.64531L20.6469 9.23359C20.0391 8.55625 19.4688 8.27031 18.7734 8.27031C17.7734 8.27031 17.0445 8.84218 17.0445 9.59375C17.0445 10.2352 17.4547 10.5766 18.8469 11.0945H18.8461ZM22.9984 12.4891C22.9984 9.02343 25.8148 6.25078 29.3273 6.25078C30.3258 6.25078 31.1648 6.46406 32.1813 6.98125V9.71875C31.218 8.77109 30.3781 8.37734 29.275 8.37734C27.0977 8.37734 25.3875 10.1844 25.3875 12.4719C25.3875 14.8875 27.0461 16.5867 29.3813 16.5867C30.4336 16.5867 31.2539 16.2117 32.182 15.2812V18.0187C31.1297 18.5172 30.2734 18.7156 29.2758 18.7156C25.7453 18.7156 22.9984 15.9984 22.9984 12.4891ZM50.968 14.532L54.1789 6.52109H56.6914L51.5562 18.7516H50.3094L45.2625 6.52109H47.7938L50.968 14.532ZM57.7453 18.4469V6.52109H64.3219V8.54062H60.0617V11.1875H64.1586V13.207H60.0617V16.4281H64.3219V18.4469H57.7453ZM73.5008 10.0406C73.5008 11.8656 72.5398 13.0641 70.7906 13.4227L74.5359 18.4461H71.6836L68.4766 13.6531H68.1734V18.4461H65.8539V6.52031H69.2945C71.9703 6.52031 73.5008 7.80547 73.5008 10.0406ZM68.8477 12.0094C70.332 12.0094 71.1156 11.3633 71.1156 10.1664C71.1156 9.00547 70.3312 8.39609 68.8844 8.39609H68.1727V12.0102H68.8469L68.8477 12.0094Z" fill="#888888"/>
    </g>
    <defs>
        <clipPath id="clip0_1_8">
            <rect width="74.2188" height="25" fill="white"/>
        </clipPath>
    </defs>
</svg>
