<svg width="43" height="25" viewBox="0 0 43 25" fill="none" xmlns="http://www.w3.org/2000/svg">
    <path d="M37.7859 11.8697C38.2547 11.8697 38.4891 12.2112 38.4891 12.8713C38.4891 13.8721 38.0625 14.5971 37.4445 14.5971C36.9758 14.5971 36.7414 14.2565 36.7414 13.5737C36.7414 12.5729 37.1891 11.8697 37.7859 11.8697ZM29.9031 14.2776C29.9031 13.7658 30.2867 13.4893 31.0531 13.4893C31.1383 13.4893 31.2023 13.5104 31.3516 13.5104C31.3305 14.2776 30.9258 14.7885 30.393 14.7885C30.0945 14.7885 29.9023 14.5971 29.9023 14.2768L29.9031 14.2776ZM20.5297 12.3815C20.5297 12.4455 20.5297 12.5315 20.5297 12.6369H19.0383C19.1664 12.0408 19.4641 11.7205 19.8906 11.7205C20.2953 11.7205 20.5297 11.9557 20.5297 12.3815ZM29.7344 0.00178165C36.6391 0.00178165 42.2367 5.59944 42.2367 12.5033C42.2367 19.4073 36.6391 25.0026 29.7344 25.0026C26.7391 25.0026 24.0125 23.9526 21.8594 22.1948C23.5016 20.608 24.7555 18.6268 25.4281 16.3823H24.3891C23.7383 18.3768 22.5945 20.1377 21.1086 21.5596C19.6305 20.1408 18.4977 18.3737 17.8492 16.3877H16.8102C17.4805 18.619 18.7125 20.6073 20.3422 22.194C18.1945 23.9276 15.4805 25.0018 12.5016 25.0018C5.59766 25.0018 0 19.4057 0 12.5026C0 5.59944 5.59688 0.00178165 12.5016 0.00178165C15.4813 0.00178165 18.1945 1.07756 20.3422 2.81663C18.7117 4.39709 17.4797 6.38538 16.8102 8.61663H17.8492C18.4977 6.63069 19.6305 4.8635 21.1086 3.45491C22.5953 4.86741 23.7391 6.62678 24.3891 8.62209H25.4281C24.7555 6.37834 23.5016 4.39319 21.8594 2.80725C24.0133 1.05022 26.7391 0.0010004 29.7344 0.0010004V0.00178165ZM5.63828 15.7916H6.95937L8.00313 9.50725H5.91563L4.63672 13.4057L4.57266 9.50725H2.65547L1.61172 15.7916H2.84766L3.65781 10.9987L3.76406 15.7916H4.68047L6.40625 10.9565L5.63828 15.7916ZM11.3047 15.2166L11.3469 14.8979L11.6453 13.0869C11.7305 12.5119 11.7516 12.3198 11.7516 12.0643C11.7516 11.0846 11.1336 10.5729 9.98359 10.5729C9.49375 10.5729 9.04609 10.6369 8.38594 10.8283L8.19375 11.9791L8.32109 11.9573L8.51328 11.894C8.81172 11.8088 9.23828 11.7658 9.62109 11.7658C10.2383 11.7658 10.4734 11.894 10.4734 12.2346C10.4734 12.3197 10.4734 12.3838 10.4305 12.5541C10.2172 12.533 10.0258 12.5119 9.87656 12.5119C8.38516 12.5119 7.53359 13.2362 7.53359 14.4932C7.53359 15.3244 8.02344 15.8783 8.74766 15.8783C9.36562 15.8783 9.81328 15.6862 10.1539 15.2604L10.1328 15.7932H11.2406L11.2617 15.6651L11.2828 15.4729L11.3047 15.2166ZM14.0531 12.7455C13.4781 12.4901 13.4133 12.426 13.4133 12.1916C13.4133 11.9143 13.6477 11.7862 14.0734 11.7862C14.3297 11.7862 14.6914 11.808 15.032 11.8502L15.2242 10.6783C14.8836 10.6143 14.3508 10.5713 14.0523 10.5713C12.5609 10.5713 12.0289 11.3596 12.05 12.2963C12.05 12.9354 12.3484 13.383 13.0516 13.7244C13.6055 13.9799 13.6906 14.0651 13.6906 14.2783C13.6906 14.5979 13.4562 14.7471 12.9234 14.7471C12.5187 14.7471 12.1563 14.683 11.7305 14.5557L11.5383 15.7276L11.6023 15.7487L11.8367 15.7908C11.9219 15.8119 12.0289 15.8338 12.1992 15.8338C12.4977 15.876 12.7531 15.876 12.9242 15.876C14.3305 15.876 14.9906 15.3432 14.9906 14.1721C14.9906 13.469 14.7141 13.0643 14.0531 12.744V12.7455ZM16.9922 14.6416C16.6727 14.6416 16.5445 14.5354 16.5445 14.2791C16.5445 14.2151 16.5445 14.151 16.5656 14.0658L16.9273 11.9362H17.6094L17.7797 10.6791H17.0977L17.2469 9.91194H15.9258L15.35 13.4057L15.2859 13.8104L15.2008 14.3213C15.1797 14.4705 15.1578 14.6408 15.1578 14.769C15.1578 15.5143 15.5414 15.8979 16.2234 15.8979C16.5219 15.8979 16.8203 15.8549 17.182 15.7276L17.3523 14.5987C17.2672 14.6408 17.1391 14.6408 16.9898 14.6408L16.9922 14.6416ZM20.1031 14.7276C19.3359 14.7276 18.9313 14.4299 18.9313 13.833C18.9313 13.7901 18.9313 13.7479 18.9523 13.6838H21.5945C21.7219 13.151 21.7648 12.7893 21.7648 12.4057C21.7648 11.276 21.0617 10.5518 19.9539 10.5518C18.6117 10.5518 17.6313 11.851 17.6313 13.5979C17.6313 15.1104 18.3984 15.8987 19.8891 15.8987C20.3797 15.8987 20.8055 15.8346 21.2742 15.6854L21.4875 14.4073C21.0187 14.6416 20.593 14.7268 20.1023 14.7268L20.1031 14.7276ZM24.3422 12.1283H24.4273C24.5555 11.5112 24.7258 11.0635 24.9391 10.6588L24.8961 10.6377H24.768C24.3203 10.6377 24.0648 10.851 23.6602 11.469L23.7883 10.6807H22.5742L21.743 15.7932H23.0852C23.575 12.6619 23.7031 12.1283 24.3422 12.1283ZM28.2203 15.7291L28.4547 14.3018C28.0289 14.5151 27.6453 14.6213 27.3258 14.6213C26.5375 14.6213 26.0688 14.0455 26.0688 13.0877C26.0688 11.7026 26.7719 10.7229 27.7734 10.7229C28.157 10.7229 28.4984 10.8291 28.9672 11.0635L29.2016 9.70022C29.0742 9.65803 29.0313 9.63616 28.8609 9.57288L28.3281 9.44475C28.1578 9.40256 27.9445 9.38069 27.7102 9.38069C25.9422 9.38069 24.7063 10.9573 24.7063 13.1932C24.7063 14.8768 25.6016 15.9205 27.05 15.9205C27.4117 15.9205 27.7313 15.8565 28.2219 15.7283L28.2203 15.7291ZM32.4383 14.8979L32.7156 13.0869C32.8219 12.5119 32.8219 12.3198 32.8219 12.0643C32.8219 11.0846 32.2258 10.5729 31.075 10.5729C30.5852 10.5729 30.1375 10.6369 29.4773 10.8283L29.2852 11.9791L29.4133 11.9573L29.5836 11.894C29.882 11.8088 30.3297 11.7658 30.7133 11.7658C31.3312 11.7658 31.5656 11.894 31.5656 12.2346C31.5656 12.3197 31.5445 12.3838 31.5016 12.5541C31.3094 12.533 31.118 12.5119 30.9687 12.5119C29.4773 12.5119 28.625 13.2362 28.625 14.4932C28.625 15.3244 29.1148 15.8783 29.8398 15.8783C30.4578 15.8783 30.9047 15.6862 31.2461 15.2604L31.2242 15.7932H32.332V15.6651L32.3531 15.4729L32.3953 15.2174L32.4383 14.8979ZM34.1 15.7924C34.5898 12.6612 34.718 12.1283 35.3563 12.1283H35.4414C35.5695 11.5112 35.7398 11.0635 35.9531 10.6588L35.9102 10.6377H35.782C35.3352 10.6377 35.0789 10.851 34.6742 11.469L34.8023 10.6807H33.5883L32.7781 15.7932H34.0992L34.1 15.7924ZM38.1477 15.7924H39.4039L40.4266 9.50803H39.1055L38.807 11.2979C38.4445 10.8291 38.0609 10.5947 37.5281 10.5947C36.3562 10.5947 35.3547 12.0432 35.3547 13.7471C35.3547 15.0252 35.9937 15.8565 36.9742 15.8565C37.4641 15.8565 37.8477 15.6862 38.2102 15.3026L38.1477 15.7924ZM8.83281 14.2807C8.83281 13.769 9.21719 13.4924 9.96328 13.4924C10.0695 13.4924 10.1336 13.5135 10.2617 13.5135C10.2406 14.2807 9.85703 14.7916 9.30234 14.7916C9.00391 14.7916 8.83359 14.6002 8.83359 14.2799L8.83281 14.2807Z" fill="#888888"/>
</svg>
