<svg width="57" height="32" viewBox="0 0 57 32" fill="none" xmlns="http://www.w3.org/2000/svg">
    <g clip-path="url(#clip0_1_6)">
        <path d="M47.11 12.477C49.321 12.44 51.743 13.095 51.182 15.753L49.813 22.016H46.654L46.865 21.069C45.145 22.781 40.827 22.89 41.53 18.958C42.021 16.664 44.408 15.935 47.953 15.935C48.199 14.915 47.496 14.661 46.303 14.697C45.11 14.733 43.67 15.134 43.214 15.352L43.495 13.059C44.408 12.877 45.601 12.476 47.11 12.476V12.477ZM47.32 18.885C47.389 18.594 47.426 18.338 47.496 18.047H46.723C46.127 18.047 45.144 18.193 44.792 18.812C44.336 19.54 44.969 20.16 45.67 20.123C46.477 20.086 47.144 19.722 47.32 18.885ZM53.883 10H57.125L54.479 22.016H51.27L53.883 10ZM39.142 10.037C40.831 10.037 42.871 11.311 42.273 14.114C41.745 16.59 39.775 18.047 37.383 18.047H34.955L34.076 22.016H30.664L33.267 10.037H39.142ZM39.037 14.114C39.248 13.203 38.72 12.476 37.84 12.476H36.151L35.447 15.753H37.03C37.91 15.753 38.825 15.025 39.036 14.115L39.037 14.114ZM16.346 12.476C18.53 12.439 20.957 13.094 20.402 15.752L19.05 22.014H15.895L16.103 21.067C14.439 22.779 10.174 22.888 10.868 18.956C11.354 16.662 13.712 15.933 17.213 15.933C17.421 14.913 16.728 14.659 15.549 14.695C14.37 14.731 12.948 15.132 12.532 15.35L12.809 13.057C13.676 12.875 14.855 12.474 16.346 12.474V12.476ZM16.589 18.885C16.624 18.594 16.693 18.338 16.762 18.047H15.965C15.41 18.047 14.44 18.193 14.093 18.812C13.642 19.54 14.231 20.16 14.925 20.123C15.722 20.086 16.416 19.722 16.589 18.885ZM28.528 12.648H31.783L24.287 25.999H20.759L23.065 22.074L21.776 12.648H24.932L25.44 18.227L28.528 12.648ZM8.499 10.036C10.227 10.036 12.237 11.31 11.638 14.113C11.109 16.589 9.134 18.046 6.771 18.046H4.303L3.456 22.015H0L2.609 10.036H8.499ZM8.393 14.114C8.64 13.203 8.076 12.476 7.229 12.476H5.536L4.795 15.753H6.418C7.3 15.753 8.181 15.024 8.393 14.114Z" fill="#888888"/>
    </g>
    <defs>
        <clipPath id="clip0_1_6">
            <rect width="57" height="32" fill="white"/>
        </clipPath>
    </defs>
</svg>
