<svg width="43" height="28" viewBox="0 0 43 28" fill="none" xmlns="http://www.w3.org/2000/svg">
    <g clip-path="url(#clip0_1_12)">
        <path d="M12.3016 8.99762H16.0116L10.4974 22.5356L6.79088 22.5382L3.93925 11.7504C5.9675 12.5834 7.77087 14.3946 8.50587 16.366L8.87337 18.2455L12.3016 8.99762ZM15.239 22.5496L17.4291 8.98625H20.93L18.7399 22.5496H15.239ZM27.993 14.4322C30.0143 15.4 30.9461 16.5707 30.9348 18.1169C30.9068 20.9317 28.5154 22.75 24.836 22.75C23.2645 22.7325 21.7507 22.4052 20.9344 22.0272L21.4244 18.9919L21.875 19.2071C23.0265 19.7138 23.7711 19.9194 25.1729 19.9194C26.18 19.9194 27.2598 19.5029 27.2694 18.5946C27.2755 18.0005 26.817 17.5752 25.452 16.9111C24.1237 16.2636 22.3633 15.176 22.3851 13.2265C22.4061 10.591 24.843 8.75 28.3045 8.75C29.6607 8.75 30.7501 9.04663 31.4422 9.31963L30.968 12.2596L30.6539 12.1039C30.0064 11.8291 29.1777 11.564 28.0332 11.5832C26.6612 11.5832 26.0269 12.1861 26.0269 12.7496C26.0181 13.3866 26.7689 13.8031 27.9921 14.4322H27.993ZM40.4241 8.99937L43.2582 22.5531H40.0085C40.0085 22.5531 39.6865 20.9939 39.5815 20.5214C39.0714 20.5214 35.4979 20.5144 35.0971 20.5144C34.9606 20.8819 34.3613 22.554 34.3613 22.554H30.6819L35.8829 10.1246C36.2495 9.24 36.8786 9.00025 37.7177 9.00025H40.4241V8.99937ZM36.1051 17.7398C36.7885 17.7398 38.4659 17.7398 39.0119 17.7398C38.8727 17.0616 38.2008 13.825 38.2008 13.825L37.9645 12.6551C37.7878 13.1635 37.4797 13.9851 37.4999 13.9493C37.4999 13.9493 36.3956 16.9601 36.1051 17.7398ZM8.50762 16.3642C7.06562 12.3629 3.88413 10.2471 0 9.26888L0.046375 8.98712H5.69275C6.454 9.01687 7.06913 9.27238 7.28088 10.1316L8.50762 16.3642Z" fill="#888888"/>
    </g>
    <defs>
        <clipPath id="clip0_1_12">
            <rect width="42.875" height="28" fill="white"/>
        </clipPath>
    </defs>
</svg>
